<svg width="20" height="20" viewBox="0 0 20 20" fill="none" xmlns="http://www.w3.org/2000/svg">
<path d="M10 17.5C14.1421 17.5 17.5 14.1421 17.5 10C17.5 5.85786 14.1421 2.5 10 2.5C5.85786 2.5 2.5 5.85786 2.5 10C2.5 14.1421 5.85786 17.5 10 17.5Z" stroke="#0065FF" stroke-width="1.5" stroke-linecap="round" stroke-linejoin="round"/>
<path d="M14.5084 15.8582C14.3584 15.4832 14.1334 15.1498 13.8417 14.8832C13.3417 14.4248 12.7 14.1665 12.0167 14.1665C10.8917 14.1665 9.10839 14.1665 7.97506 14.1665C7.30006 14.1665 6.65005 14.4248 6.15005 14.8832C5.85839 15.1582 5.62507 15.4915 5.4834 15.8582" stroke="#0065FF" stroke-width="1.5" stroke-linecap="round" stroke-linejoin="round"/>
<path d="M9.99992 11.6668C10.9204 11.6668 11.6666 10.9206 11.6666 10.0002C11.6666 9.07969 10.9204 8.3335 9.99992 8.3335C9.07944 8.3335 8.33325 9.07969 8.33325 10.0002C8.33325 10.9206 9.07944 11.6668 9.99992 11.6668Z" stroke="#0065FF" stroke-width="1.5" stroke-miterlimit="10" stroke-linecap="round" stroke-linejoin="round"/>
<path d="M10 2.5V4.16667" stroke="#0065FF" stroke-width="1.5" stroke-miterlimit="10" stroke-linecap="round" stroke-linejoin="round"/>
<path d="M13.7499 3.5083L13.0249 4.7583" stroke="#0065FF" stroke-width="1.5" stroke-miterlimit="10" stroke-linecap="round" stroke-linejoin="round"/>
<path d="M6.25 3.5083L6.975 4.7583" stroke="#0065FF" stroke-width="1.5" stroke-miterlimit="10" stroke-linecap="round" stroke-linejoin="round"/>
<path d="M3.5083 6.25L4.7583 6.975" stroke="#0065FF" stroke-width="1.5" stroke-miterlimit="10" stroke-linecap="round" stroke-linejoin="round"/>
<path d="M17.5 10H16.25" stroke="#0065FF" stroke-width="1.5" stroke-miterlimit="10" stroke-linecap="round" stroke-linejoin="round"/>
<path d="M3.75 10H2.5" stroke="#0065FF" stroke-width="1.5" stroke-miterlimit="10" stroke-linecap="round" stroke-linejoin="round"/>
<path d="M11.4917 9.275L16.4917 6.25" stroke="#0065FF" stroke-width="1.5" stroke-miterlimit="10" stroke-linecap="round" stroke-linejoin="round"/>
</svg>
