<svg width="21" height="21" viewBox="0 0 21 21" fill="none" xmlns="http://www.w3.org/2000/svg">
<path fill-rule="evenodd" clip-rule="evenodd" d="M12.68 1.11133H17.5522C18.8433 1.11133 19.8889 2.15688 19.8889 3.44688V8.31911C19.8889 8.93911 19.6422 9.53244 19.2044 9.97133L9.85997 19.3158C8.94774 20.228 7.46886 20.228 6.55663 19.3158L1.68441 14.4435C0.772189 13.5313 0.772189 12.0524 1.68441 11.1402L11.0289 1.79577C11.4666 1.35799 12.0611 1.11133 12.68 1.11133Z" stroke="#0065FF" stroke-width="1.5" stroke-linecap="round" stroke-linejoin="round"/>
<path d="M10.8779 10.1223L11.489 9.51123" stroke="#0065FF" stroke-width="1.5" stroke-linecap="round" stroke-linejoin="round"/>
<path d="M7.18899 13.811L6.57788 14.4221" stroke="#0065FF" stroke-width="1.5" stroke-linecap="round" stroke-linejoin="round"/>
<path d="M6.57012 12.3006C6.46901 12.7195 6.56012 13.1706 6.8879 13.4984L7.19457 13.8051L7.56012 14.1706C8.03568 14.6462 8.80679 14.6462 9.28234 14.1706C9.67679 13.7762 9.75346 13.1628 9.46568 12.6839L8.60457 11.2462C8.3179 10.7673 8.39346 10.1539 8.7879 9.7595C9.26346 9.28394 10.0346 9.28394 10.5101 9.7595L10.8757 10.1251L11.1823 10.4317C11.509 10.7584 11.6001 11.2084 11.5012 11.6262" stroke="#0065FF" stroke-width="1.5" stroke-linecap="round" stroke-linejoin="round"/>
<path d="M15.2303 5.76993C15.3913 5.93091 15.3913 6.19192 15.2303 6.3529C15.0694 6.51389 14.8084 6.51389 14.6474 6.3529C14.4864 6.19192 14.4864 5.93091 14.6474 5.76993C14.8084 5.60895 15.0694 5.60895 15.2303 5.76993" stroke="#0065FF" stroke-width="1.5" stroke-linecap="round" stroke-linejoin="round"/>
</svg>
