<svg width="24" height="24" viewBox="0 0 24 24" fill="none" xmlns="http://www.w3.org/2000/svg">
<path d="M17.7631 18.91L17.4131 18.031C17.2361 17.585 16.9611 17.185 16.6091 16.859L16.5451 16.8C15.9911 16.286 15.2631 16 14.5071 16H9.49308C8.73708 16 8.00908 16.286 7.45408 16.799L7.39008 16.859C7.03808 17.185 6.76408 17.585 6.58608 18.031L6.23608 18.91" stroke="#1D2C4B" stroke-width="1.5" stroke-linecap="round" stroke-linejoin="round"/>
<path d="M14.4749 7.44701C15.8417 8.81385 15.8417 11.0299 14.4749 12.3968C13.108 13.7636 10.892 13.7636 9.52513 12.3968C8.15829 11.0299 8.15829 8.81385 9.52513 7.44701C10.892 6.08017 13.108 6.08017 14.4749 7.44701" stroke="#1D2C4B" stroke-width="1.5" stroke-linecap="round" stroke-linejoin="round"/>
<path d="M18.3639 5.63604C21.8787 9.15076 21.8787 14.8492 18.3639 18.3639C14.8492 21.8787 9.15074 21.8787 5.63604 18.3639C2.12132 14.8492 2.12132 9.15074 5.63604 5.63604C9.15076 2.12132 14.8492 2.12132 18.3639 5.63604" stroke="#1D2C4B" stroke-width="1.5" stroke-linecap="round" stroke-linejoin="round"/>
</svg>
